#define dreidelbw_width 93
#define dreidelbw_height 90
static char dreidelbw_bits[] = {
 0x00,0x00,0x00,0x00,0x00,0x00,0x00,0x00,0x00,0x00,0x00,0xe0,0x00,0x00,0x00,
 0x00,0x00,0x00,0x00,0x00,0x00,0x00,0x00,0xe0,0x00,0x00,0x00,0x00,0x00,0x00,
 0x00,0x00,0x00,0x00,0x00,0xe0,0x00,0x00,0x00,0x00,0x00,0x00,0x00,0x00,0x00,
 0x00,0x00,0xe0,0x00,0x00,0x00,0x00,0x70,0x00,0x00,0x00,0x00,0x00,0x00,0xe0,
 0x00,0x00,0x00,0x00,0xfe,0x00,0x00,0x00,0x00,0x00,0x00,0xe0,0x00,0x00,0x00,
 0xc0,0xcf,0x00,0x00,0x00,0x00,0x00,0x00,0xe0,0x00,0x00,0x00,0xe0,0x81,0x00,
 0x00,0x00,0x00,0x00,0x00,0xe0,0x00,0x00,0x00,0x70,0x80,0x01,0x00,0x00,0x00,
 0x00,0x00,0xe0,0x00,0x00,0x00,0x38,0x80,0x01,0x00,0x00,0x00,0x00,0x00,0xe0,
 0x00,0x00,0x00,0x18,0x00,0x03,0x00,0x00,0x00,0x00,0x00,0xe0,0x00,0x00,0x00,
 0x10,0x00,0x03,0x00,0x00,0x00,0x00,0x00,0xe0,0x00,0x00,0x00,0x30,0x00,0x06,
 0x00,0x00,0x00,0x00,0x00,0xe0,0x00,0x00,0x00,0x30,0x00,0x06,0x00,0x00,0x00,
 0x00,0x00,0xe0,0x00,0x00,0x00,0x60,0x00,0x06,0x00,0x00,0x00,0x00,0x00,0xe0,
 0x00,0x00,0x00,0x60,0x00,0x0c,0x00,0x00,0x00,0x00,0x00,0xe0,0x00,0x00,0x00,
 0x40,0x00,0x0c,0x00,0x00,0x00,0x00,0x00,0xe0,0x00,0x00,0x00,0xc0,0x00,0x18,
 0x00,0x00,0x00,0x00,0x00,0xe0,0x00,0x00,0x00,0xc0,0x00,0x18,0x00,0x00,0x00,
 0x00,0x00,0xe0,0x00,0x00,0x00,0x80,0x01,0x18,0x00,0x00,0x00,0x00,0x00,0xe0,
 0x00,0x00,0x00,0x80,0x01,0x30,0x00,0x00,0x04,0x00,0x00,0xe0,0x00,0x00,0x00,
 0x00,0x03,0x30,0x00,0xc0,0x0f,0x00,0x00,0xe0,0x00,0x00,0x00,0x00,0x03,0x60,
 0x00,0xf8,0x0f,0x00,0x00,0xe0,0x00,0x00,0x00,0x00,0x03,0x60,0x80,0x7f,0x18,
 0x00,0x00,0xe0,0x00,0x00,0x00,0x00,0x06,0x40,0xf8,0x07,0x18,0x00,0x00,0xe0,
 0x00,0x00,0x00,0x00,0x06,0xc0,0x7f,0x00,0x10,0x00,0x00,0xe0,0x00,0x00,0x00,
 0x00,0x04,0xe0,0x0f,0x00,0x30,0x00,0x00,0xe0,0x00,0x00,0x00,0x00,0x0c,0xfe,
 0x00,0x00,0x30,0x00,0x00,0xe0,0x00,0x00,0x00,0x00,0xec,0x1f,0x00,0x00,0x60,
 0x00,0x00,0xe0,0x00,0x00,0x00,0x00,0xf8,0x01,0x00,0x00,0x60,0x00,0x00,0xe0,
 0x00,0x00,0x00,0x00,0x7c,0x00,0x00,0x00,0x40,0x00,0x00,0xe0,0x00,0x00,0x00,
 0x00,0x6e,0x00,0x00,0x00,0xc0,0x00,0x00,0xe0,0x00,0x00,0x00,0x80,0x67,0x00,
 0x00,0x00,0xc0,0x00,0x00,0xe0,0x00,0x00,0x00,0xc0,0xc1,0x00,0x00,0xf8,0x80,
 0x01,0x00,0xe0,0x00,0x00,0x00,0xf0,0xc0,0x00,0x00,0x0c,0x81,0x01,0x00,0xe0,
 0x00,0x00,0x00,0x38,0x80,0x01,0x08,0x02,0x01,0x01,0x00,0xe0,0x00,0x00,0x00,
 0x1e,0x80,0x01,0x10,0x01,0x01,0x03,0x00,0xe0,0x00,0x00,0x00,0x07,0x80,0x01,
 0xe8,0x01,0x01,0x03,0x00,0xe0,0x00,0x00,0x80,0x03,0x00,0x03,0x08,0x10,0x01,
 0x06,0x00,0xe0,0x00,0x00,0xe0,0x01,0x00,0x03,0x08,0x3c,0x01,0x06,0x00,0xe0,
 0x00,0x00,0x70,0x00,0x00,0x06,0x98,0x27,0x02,0x04,0x00,0xe0,0x00,0x00,0x3c,
 0x00,0x00,0x06,0xf0,0x40,0x02,0x0c,0x00,0xe0,0x00,0x00,0x0c,0x00,0x02,0x06,
 0x80,0x41,0x04,0x0c,0x00,0xe0,0x00,0x00,0x18,0x00,0x06,0x0c,0xc0,0xc3,0x04,
 0x18,0x00,0xe0,0x00,0x00,0x18,0x20,0x1e,0x0c,0x40,0x82,0x08,0x18,0x00,0xe0,
 0x00,0x00,0x10,0x60,0x14,0x18,0x40,0x86,0x08,0x10,0x00,0xe0,0x00,0x00,0x30,
 0xe2,0x25,0x18,0x40,0x84,0x10,0x30,0x00,0xe0,0x00,0x00,0x30,0x0c,0x2d,0x18,
 0x80,0x04,0x11,0x30,0x00,0xe0,0x00,0x00,0x60,0x5c,0x32,0x30,0x80,0x08,0x11,
 0x60,0x00,0xe0,0x00,0x00,0x60,0xa4,0x52,0x30,0x80,0x08,0x1b,0x60,0x00,0xe0,
 0x00,0x00,0x40,0xa8,0x52,0x60,0x80,0x08,0x0e,0x40,0x00,0xe0,0x00,0x00,0xc0,
 0x28,0x52,0x60,0x00,0x11,0x00,0xc0,0x00,0xe0,0x00,0x00,0xc0,0x30,0x53,0x60,
 0x00,0x19,0x00,0xc0,0x00,0xe0,0x00,0x00,0x80,0x51,0x55,0xc0,0x00,0x0b,0x00,
 0x80,0x01,0xe0,0x00,0x00,0x80,0x51,0x95,0xc0,0x00,0x0e,0x00,0xc0,0x01,0xe0,
 0x00,0x00,0x00,0x21,0xb6,0x80,0x01,0x00,0x00,0xf0,0x01,0xe0,0x00,0x00,0x00,
 0xa3,0x9e,0x80,0x01,0x00,0x00,0xfc,0x00,0xe0,0x00,0x00,0x00,0xa3,0x83,0x80,
 0x01,0x00,0x00,0xcf,0x00,0xe0,0x00,0x00,0x00,0x46,0x01,0x00,0x03,0x00,0xc0,
 0x63,0x00,0xe0,0x00,0x00,0x00,0x06,0x00,0x01,0x03,0x00,0xf0,0x60,0x00,0xe0,
 0x00,0x00,0x00,0x84,0xc0,0x01,0x06,0x00,0x3c,0x30,0x00,0xe0,0x00,0x00,0x00,
 0x0c,0xf8,0x00,0x06,0x00,0x0f,0x30,0x00,0xe0,0x00,0x00,0x00,0x0c,0x1f,0x00,
 0x06,0xc0,0x03,0x18,0x00,0xe0,0x00,0x00,0x00,0x18,0x00,0x00,0x0c,0xf0,0x00,
 0x18,0x00,0xe0,0x00,0x00,0x00,0x18,0x00,0x00,0x0c,0x3c,0x00,0x0c,0x00,0xe0,
 0x00,0x00,0x00,0x10,0x00,0x00,0x18,0x0f,0x00,0x0c,0x00,0xe0,0x00,0x00,0x00,
 0x30,0x00,0x00,0xd8,0x03,0x00,0x06,0x00,0xe0,0x00,0x00,0x00,0x30,0x00,0x00,
 0xf8,0x00,0x00,0x06,0x00,0xe0,0x00,0x00,0x00,0x60,0x00,0x80,0x7f,0x00,0x00,
 0x03,0x00,0xe0,0x00,0x00,0x00,0x60,0x00,0xfc,0x6f,0x00,0x00,0x03,0x00,0xe0,
 0x00,0x00,0x00,0x40,0xe0,0x7f,0x60,0x00,0x80,0x01,0x00,0xe0,0x00,0x00,0x00,
 0xc0,0xff,0x03,0xc0,0x00,0x80,0x01,0x00,0xe0,0x00,0x00,0x00,0xc0,0x1f,0x00,
 0xc0,0x00,0xc0,0x00,0x00,0xe0,0x00,0x00,0x00,0x80,0x0f,0x00,0x80,0x01,0xc0,
 0x00,0x00,0xe0,0x00,0x00,0x00,0x00,0x3e,0x00,0x00,0x03,0x60,0x00,0x00,0xe0,
 0x00,0x00,0x00,0x00,0xf0,0x00,0x00,0x03,0x60,0x00,0x00,0xe0,0x00,0x00,0x00,
 0x00,0xc0,0x07,0x00,0x06,0x30,0x00,0x00,0xe0,0x00,0x00,0x00,0x00,0x00,0x1f,
 0x00,0x06,0x38,0x00,0x00,0xe0,0x00,0x00,0x00,0x00,0x00,0x78,0x00,0x0c,0x18,
 0x00,0x00,0xe0,0x00,0x00,0x00,0x00,0x00,0xe0,0x01,0x18,0x1c,0x00,0x00,0xe0,
 0x00,0x00,0x00,0x00,0x00,0x80,0x0f,0x18,0x0c,0x00,0x00,0xe0,0x00,0x00,0x00,
 0x00,0x00,0x00,0x3e,0x30,0x0e,0x00,0x00,0xe0,0x00,0x00,0x00,0x00,0x00,0x00,
 0xf0,0x30,0x06,0x00,0x00,0xe0,0x00,0x00,0x00,0x00,0x00,0x00,0xc0,0x67,0x07,
 0x00,0x00,0xe0,0x00,0x00,0x00,0x00,0x00,0x00,0x00,0xff,0x03,0x00,0x00,0xe0,
 0x00,0x00,0x00,0x00,0x00,0x00,0x00,0xf8,0x03,0x00,0x00,0xe0,0x00,0x00,0x00,
 0x00,0x00,0x00,0x00,0xe0,0x01,0x00,0x00,0xe0,0x00,0x00,0x00,0x00,0x00,0x00,
 0x00,0x80,0x00,0x00,0x00,0xe0,0x00,0x00,0x00,0x00,0x00,0x00,0x00,0x00,0x00,
 0x00,0x00,0xe0,0x00,0x00,0x00,0x00,0x00,0x00,0x00,0x00,0x00,0x00,0x00,0xe0
 };
