#define pg_width 72
#define pg_height 70
static char pg_bits[] = {
 0x00,0x00,0x00,0xff,0x07,0x00,0x80,0x1f,0x00,0x00,0x00,0xe0,0x01,0xfe,0x00,
 0x00,0x0e,0x00,0x00,0x00,0x9b,0x48,0x81,0x03,0x00,0x00,0x00,0x00,0xc0,0x0d,
 0x20,0x00,0x02,0x00,0x00,0x00,0x00,0x30,0x50,0x08,0x00,0x08,0x00,0x00,0x00,
 0x00,0x08,0x20,0x02,0x00,0x02,0x00,0x00,0x00,0x00,0x00,0x80,0x08,0x00,0x04,
 0x00,0x00,0x00,0x00,0x08,0x00,0x02,0x05,0x0e,0x00,0x00,0x00,0x00,0x70,0x81,
 0xe0,0x07,0x0e,0x00,0x00,0x00,0x00,0x30,0x0c,0xe1,0x25,0x1d,0x00,0x00,0x00,
 0x00,0x00,0x0d,0x90,0xe7,0x00,0x00,0x00,0x00,0x00,0x20,0x5d,0x8b,0xff,0x22,
 0x00,0x00,0x00,0x00,0x10,0xac,0x06,0x6d,0xc8,0x00,0x00,0x00,0x00,0x00,0x7c,
 0x08,0xfb,0xc3,0x00,0x00,0x00,0x00,0x38,0x58,0x00,0x0e,0x94,0x00,0x00,0x00,
 0x00,0x28,0x30,0x0a,0x02,0x40,0x01,0x00,0x00,0x00,0x44,0x18,0x70,0x15,0xa8,
 0x00,0x00,0x00,0x00,0x84,0x57,0x81,0x42,0xc2,0x01,0x00,0x00,0x00,0x04,0x0d,
 0xb4,0x00,0xd0,0x01,0x00,0x00,0x00,0x44,0x50,0x40,0x10,0xe1,0x0b,0x00,0x00,
 0x00,0x14,0x00,0x00,0x05,0xb4,0x1e,0x00,0x00,0x00,0xd8,0x04,0x12,0x90,0xd8,
 0x23,0x00,0x00,0x00,0x30,0x90,0x80,0x1a,0xff,0x30,0x00,0x00,0x00,0x70,0x29,
 0xe8,0xff,0x7f,0x65,0x00,0x00,0x00,0xfc,0xde,0x32,0xfe,0x00,0x70,0x01,0x00,
 0x00,0xd7,0x67,0xef,0xaf,0x25,0xfc,0x00,0x00,0x00,0xbb,0x56,0xe0,0xfa,0x02,
 0x41,0x01,0x00,0x80,0xfe,0x02,0x40,0x2d,0x2f,0xc4,0x01,0x00,0x80,0xd5,0x03,
 0xe0,0xdb,0xbe,0x70,0x00,0x00,0x80,0xbb,0x02,0x60,0x76,0xb5,0x6a,0x01,0x00,
 0xc0,0x7a,0x03,0xa0,0xad,0xdb,0x4a,0x00,0x00,0xf0,0xad,0x03,0xe0,0xb6,0xf6,
 0x42,0x00,0x00,0x90,0xae,0x00,0xa0,0x6d,0xed,0x75,0x28,0x00,0x30,0xdb,0x02,
 0x60,0xdb,0x56,0xff,0xd7,0x07,0xa0,0xaf,0x00,0x60,0xf5,0xb5,0x95,0xeb,0x1c,
 0xc0,0xda,0x00,0xc0,0xaf,0x5a,0xfb,0x17,0x00,0x80,0x6f,0x00,0x60,0xd5,0xd5,
 0x3e,0x00,0x15,0x00,0xdd,0x03,0x70,0x6d,0x6d,0x8f,0x00,0x04,0x00,0xf4,0xaf,
 0xfe,0xda,0xff,0x01,0x92,0x02,0x00,0xac,0x40,0x81,0xf5,0x02,0x28,0xa0,0x02,
 0x00,0xfb,0x10,0xa0,0x1b,0x00,0x92,0xe0,0x01,0x00,0x43,0x02,0x08,0x0e,0x68,
 0x21,0x4a,0x00,0x80,0x00,0x40,0x02,0x11,0x81,0x2e,0x24,0x00,0x80,0x12,0x11,
 0x40,0x08,0x10,0x70,0x2a,0x00,0x80,0x00,0x0a,0x11,0x47,0x02,0x40,0x1d,0x00,
 0x80,0x88,0x50,0x00,0x05,0x40,0x82,0x07,0x00,0x00,0x21,0xe0,0x95,0x25,0x09,
 0x88,0x02,0x00,0x80,0x02,0x08,0xfe,0x03,0x00,0x01,0x02,0x00,0x00,0x83,0x00,
 0x50,0x89,0x48,0x10,0x06,0x00,0x00,0x27,0x44,0x50,0x02,0x00,0x42,0x04,0x00,
 0x00,0x05,0x01,0x19,0x25,0x11,0x00,0x04,0x00,0x80,0x22,0x20,0x08,0x05,0x80,
 0x10,0x05,0x00,0x80,0x08,0x02,0x0d,0x12,0x09,0x02,0x04,0x00,0x80,0x80,0x20,
 0x06,0x0c,0x00,0x90,0x06,0x00,0x60,0x00,0x84,0x01,0x98,0x90,0x00,0x16,0x00,
 0x30,0x4a,0x00,0x01,0x30,0x04,0x88,0x18,0x00,0x08,0x00,0xa9,0x00,0xe0,0x20,
 0x02,0x28,0x00,0x38,0x21,0xa0,0x00,0x40,0x03,0x40,0x22,0x00,0x84,0x08,0x60,
 0x00,0x00,0x5e,0x04,0x20,0x00,0x80,0x04,0x52,0x00,0x00,0x16,0x91,0x68,0x50,
 0x03,0x70,0xe1,0x55,0xd5,0x41,0x00,0xe8,0x8b,0x43,0x00,0x68,0x88,0x40,0x00,
 0x4a,0x19,0x40,0x58,0x04,0x18,0x00,0x00,0x11,0x00,0x16,0x1d,0x2c,0xdb,0x87,
 0x00,0x3e,0x50,0xd3,0x03,0x00,0xd3,0x00,0xa0,0x80,0x63,0x00,0x00,0x00,0x80,
 0x80,0x00,0x60,0x80,0x3d,0x00,0x00,0x10,0x80,0x07,0x00,0x10,0x88,0x1f,0x1e,
 0xbd,0x07,0xe0,0x38,0xd2,0xf3,0x62,0x20,0x32,0x03,0x00,0x38,0xf0,0x7a,0xdc,
 0x66,0xe0,0xc9,0x00,0x80,0x1e,0xb0,0xc4,0xa4,0x11,0xa0,0x9c,0x00,0xd0,0x1f
 };
