#define mf_width 110
#define mf_height 97
static char mf_bits[] = {
 0x00,0x00,0x00,0x00,0x00,0x00,0x00,0x00,0x00,0x00,0x00,0x00,0x00,0xc0,0x00,
 0x00,0x00,0x00,0x00,0x00,0x00,0x00,0x00,0x00,0x00,0x00,0x00,0xc0,0x00,0x00,
 0x00,0x00,0x00,0x00,0x00,0x00,0x00,0x00,0x00,0x00,0x00,0xc0,0x00,0x00,0x00,
 0x00,0x00,0x00,0x00,0x00,0x00,0x00,0x00,0x00,0x00,0xc0,0x00,0x00,0x00,0x00,
 0x00,0x00,0x00,0x00,0x00,0x00,0x00,0x00,0x00,0xc0,0x00,0x00,0x00,0x00,0x00,
 0x00,0x00,0x00,0x00,0x00,0x00,0x00,0x00,0xc0,0x00,0x00,0x00,0x00,0x00,0x00,
 0x00,0x00,0x00,0x00,0x00,0x00,0x00,0xc0,0x00,0x00,0x00,0x00,0x00,0x00,0xc0,
 0x0f,0x00,0x00,0x00,0x00,0x00,0xc0,0x00,0x00,0x00,0x00,0x00,0x00,0xfc,0xfb,
 0x00,0x00,0x00,0x00,0x00,0xc0,0x00,0x00,0x00,0x00,0x00,0x00,0x77,0xc0,0x07,
 0x00,0x00,0x00,0x00,0xc0,0x00,0x00,0x00,0x00,0x00,0x80,0x31,0x00,0x3c,0x00,
 0x00,0x00,0x00,0xc0,0x00,0x00,0x00,0x00,0x00,0x80,0x21,0xfc,0xe1,0x01,0x00,
 0x00,0x00,0xc0,0x00,0x00,0x00,0x00,0x00,0x80,0x60,0x5e,0x9f,0x03,0x00,0x00,
 0x00,0xc0,0x00,0x00,0x00,0x00,0x00,0x9e,0xdf,0x01,0x3c,0x0e,0x00,0x00,0x00,
 0xc0,0x00,0x00,0x00,0x00,0x80,0xf3,0x1b,0x03,0xe0,0x18,0x00,0x00,0x00,0xc0,
 0x00,0x00,0x00,0x80,0xc1,0x80,0x3f,0x06,0x80,0x73,0x00,0x00,0x00,0xc0,0x00,
 0x00,0x00,0xf0,0x63,0x22,0x66,0x0c,0x00,0xce,0x00,0x00,0x00,0xc0,0x00,0x00,
 0x00,0x38,0xf2,0xff,0xc0,0x08,0x00,0x98,0x00,0x00,0x00,0xc0,0x00,0x00,0x00,
 0x8c,0xf9,0x0b,0x81,0x19,0x00,0x30,0x01,0x00,0x00,0xc0,0x00,0x00,0x00,0x84,
 0xc8,0x01,0x03,0x11,0x00,0x60,0x03,0x00,0x00,0xc0,0x00,0x00,0x00,0xcc,0x0c,
 0x00,0x02,0x1b,0x00,0xc0,0x06,0x00,0x00,0xc0,0x00,0x00,0x00,0x8c,0x05,0xc0,
 0x02,0x09,0x00,0x80,0x04,0x00,0x00,0xc0,0x00,0x00,0x00,0x88,0xf7,0x9e,0x00,
 0x08,0x00,0x80,0x0d,0x00,0x00,0xc0,0x00,0x00,0x00,0x18,0x96,0xd7,0x00,0x0c,
 0x00,0x00,0x1b,0x00,0x00,0xc0,0x00,0x00,0x00,0x30,0x8e,0xf1,0x00,0x06,0x00,
 0x00,0x13,0x00,0x00,0xc0,0x00,0x00,0x00,0xe0,0x1f,0x79,0x00,0x06,0x00,0x00,
 0x36,0x00,0x00,0xc0,0x00,0x00,0x00,0x80,0x8d,0x0d,0x00,0x00,0x00,0x00,0x34,
 0x00,0x00,0xc0,0x00,0x00,0x00,0x00,0x98,0x07,0x00,0x00,0x00,0x00,0x2c,0x00,
 0x00,0xc0,0x00,0x00,0x00,0x00,0xcc,0x03,0x00,0x00,0x06,0x33,0x78,0x00,0x00,
 0xc0,0x00,0x00,0x78,0x00,0x67,0x01,0x00,0x00,0x0c,0x22,0x50,0x00,0x00,0xc0,
 0x00,0x00,0xee,0x81,0x31,0x01,0x00,0x00,0xc8,0x64,0xc0,0x00,0x00,0xc0,0x00,
 0x00,0x06,0xc7,0x18,0x01,0x00,0x00,0x99,0xcc,0x80,0x00,0x00,0xc0,0x00,0x00,
 0x0c,0x4c,0x0c,0x01,0x00,0x00,0xb7,0x99,0x81,0x00,0x00,0xc0,0x00,0x00,0x78,
 0x68,0x04,0x03,0x00,0x00,0x6c,0x33,0x83,0x01,0x00,0xc0,0x00,0x00,0xe0,0x39,
 0x06,0x03,0x00,0x00,0xc8,0x66,0x06,0x01,0x00,0xc0,0x00,0x00,0x00,0x3b,0x06,
 0x03,0x00,0x00,0x9b,0x4d,0x04,0x01,0x00,0xc0,0x00,0x00,0x00,0x3b,0x02,0x02,
 0x00,0x00,0x3f,0x8b,0x0c,0x03,0x00,0xc0,0x00,0x00,0x00,0x39,0x06,0x06,0x00,
 0x00,0x39,0x9a,0x09,0x01,0x00,0xc0,0x00,0x00,0x80,0x39,0x5c,0x0f,0x00,0x00,
 0x63,0x36,0x19,0x03,0x0e,0xc0,0x00,0x08,0x80,0x79,0xf0,0x1f,0x00,0x00,0xc3,
 0x64,0x1b,0x01,0x1a,0xc0,0x00,0x3e,0x00,0xf1,0x01,0x34,0x00,0x00,0x86,0x67,
 0x9a,0x01,0x13,0xc0,0x00,0x63,0x00,0xe3,0x07,0x3c,0x00,0x00,0x0c,0x4f,0x97,
 0x41,0x33,0xc0,0x80,0x41,0xc0,0xcf,0x0c,0x38,0x00,0x00,0x38,0x5c,0xbf,0xc0,
 0x21,0xc0,0x80,0x40,0xf0,0x5d,0x78,0x1c,0x00,0x00,0x60,0xf0,0xbe,0x61,0x60,
 0xc0,0x80,0x60,0xf8,0xb0,0xd8,0x0f,0x04,0x00,0xc0,0xc1,0xbf,0x20,0x60,0xc0,
 0xc0,0x60,0xfc,0xe1,0x0d,0x01,0x0c,0x00,0x40,0x83,0xf7,0x60,0x60,0xc0,0xc0,
 0x60,0x38,0xa1,0x0f,0x02,0x04,0x00,0xc0,0x8e,0xff,0x60,0x20,0xc0,0xc0,0x20,
 0xe0,0x3f,0xcc,0x1f,0x0e,0x00,0x98,0x19,0xf7,0x40,0x38,0xc0,0xc0,0x20,0xc0,
 0xf5,0x7e,0xf0,0x63,0x00,0x36,0x73,0xff,0xd0,0x0e,0xc0,0x80,0xf3,0x60,0xe0,
 0x3f,0xe0,0xf0,0x00,0x6c,0xc6,0xfd,0xf0,0x1f,0xc0,0xc0,0xf7,0x60,0xc0,0xf8,
 0x40,0x9f,0x01,0x98,0x8d,0xcd,0xf8,0x1d,0xc0,0xc0,0xff,0x20,0xc0,0xcc,0xe0,
 0x09,0x03,0x30,0x1b,0xc3,0xf0,0x1f,0xc0,0xc0,0x7f,0x60,0x80,0xfd,0x00,0x00,
 0xc6,0x67,0xf6,0x03,0xe0,0x05,0xc0,0xc0,0xbd,0x42,0x00,0xff,0x00,0x00,0xfc,
 0xff,0xfe,0x01,0xfc,0x0b,0xc0,0x00,0xfc,0xc3,0x00,0xcc,0xf0,0x03,0x2d,0xff,
 0x8f,0x03,0x06,0x0f,0xc0,0x00,0x04,0x86,0x2b,0xf8,0x9f,0xfe,0x07,0x38,0x80,
 0x87,0x01,0x04,0xc0,0x00,0x06,0x04,0xfe,0x30,0x04,0xe0,0x00,0x30,0xea,0x8f,
 0x00,0x06,0xc0,0x00,0x03,0x06,0x80,0x01,0x00,0x80,0x81,0x33,0x7f,0x8f,0x00,
 0x06,0xc0,0x00,0x03,0x02,0x00,0x03,0x00,0x80,0xfb,0x9f,0xe1,0x83,0x00,0x03,
 0xc0,0x00,0x03,0x06,0x00,0xae,0x02,0xc0,0x3e,0xf8,0x80,0x81,0x01,0x01,0xc0,
 0x00,0x03,0x0c,0x00,0xfc,0x07,0xc0,0x07,0x60,0x80,0xa0,0x80,0x01,0xc0,0x00,
 0x0e,0x18,0x00,0x00,0x0c,0x00,0x01,0x00,0x80,0xf1,0xc1,0x00,0xc0,0x00,0xf8,
 0x10,0x00,0x00,0x18,0x7f,0x00,0x00,0xc0,0xe0,0x7f,0x00,0xc0,0x00,0xc0,0x37,
 0x01,0x00,0xf0,0x65,0x80,0x3f,0x60,0xe8,0x1f,0x00,0xc0,0x00,0x00,0xfe,0x03,
 0x00,0x00,0xc0,0xc0,0x75,0x3c,0xdc,0x1f,0x00,0xc0,0x00,0x00,0x78,0x06,0x00,
 0xc0,0x7f,0x78,0xc0,0x0f,0xf6,0x3f,0x00,0xc0,0x00,0x00,0x30,0x04,0x00,0xe0,
 0xea,0xdf,0x80,0x00,0xb3,0x0b,0x00,0xc0,0x00,0x00,0x20,0x0c,0x00,0x60,0x00,
 0x43,0x00,0x80,0x01,0x03,0x00,0xc0,0x00,0x00,0x30,0x18,0x00,0x20,0x00,0xc0,
 0x00,0xc0,0x00,0x06,0x00,0xc0,0x00,0x00,0x10,0xf0,0x03,0x20,0x00,0x40,0x00,
 0x60,0x00,0x02,0x00,0xc0,0x00,0x00,0x70,0xc0,0x03,0x20,0x00,0xc0,0x00,0x26,
 0x00,0x03,0x00,0xc0,0x00,0x00,0xf0,0x81,0x47,0x30,0x00,0x40,0x00,0x3f,0xe8,
 0x01,0x00,0xc0,0x00,0x00,0xe0,0x01,0xe7,0x61,0x00,0x40,0xf0,0xff,0x7f,0x00,
 0x00,0xc0,0x00,0x00,0x60,0x80,0x37,0xe3,0x03,0x60,0x9c,0xff,0x01,0x00,0x00,
 0xc0,0x00,0x00,0xc0,0x7f,0x1f,0x02,0xff,0x3f,0x06,0xbf,0x01,0x00,0x00,0xc0,
 0x00,0x00,0x00,0xfa,0x0e,0x7e,0xf8,0x12,0x03,0xbe,0x01,0x00,0x00,0xc0,0x00,
 0x00,0x00,0x78,0x00,0xcc,0x91,0xc1,0x01,0xe2,0x00,0x00,0x00,0xc0,0x00,0x00,
 0x00,0xf0,0x00,0x80,0xcf,0xff,0x00,0x0e,0x00,0x00,0x00,0xc0,0x00,0x00,0x00,
 0x80,0x01,0x00,0xe0,0x17,0x00,0x1e,0x00,0x00,0x00,0xc0,0x00,0x00,0x00,0x00,
 0x0f,0x02,0xe0,0x2e,0x00,0x0c,0x00,0x00,0x00,0xc0,0x00,0x00,0x00,0x00,0x3c,
 0xf7,0x83,0xf9,0x00,0x07,0x00,0x00,0x00,0xc0,0x00,0x00,0x00,0x00,0xf0,0xff,
 0x27,0x87,0xfb,0x01,0x00,0x00,0x00,0xc0,0x00,0x00,0x00,0x00,0x00,0xc0,0x7f,
 0x06,0x5e,0x00,0x00,0x00,0x00,0xc0,0x00,0x00,0x00,0x00,0x00,0x80,0xcf,0x0d,
 0x00,0x00,0x00,0x00,0x00,0xc0,0x00,0x00,0x00,0x00,0x00,0x00,0x00,0x07,0x00,
 0x00,0x00,0x00,0x00,0xc0,0x00,0x00,0x00,0x00,0x00,0x00,0x00,0x00,0x00,0x00,
 0x00,0x00,0x00,0xc0,0x00,0x00,0x00,0x00,0x00,0x00,0x00,0x00,0x00,0x00,0x00,
 0x00,0x00,0xc0,0x00,0x00,0x00,0x00,0x00,0x00,0x00,0x00,0x00,0x00,0x00,0x00,
 0x00,0xc0,0x00,0x00,0x00,0x00,0x00,0x00,0x00,0x00,0x00,0x00,0x00,0x00,0x00,
 0xc0,0x00,0x00,0x00,0x00,0x00,0x00,0x00,0x00,0x00,0x00,0x00,0x00,0x00,0xc0,
 0x00,0x00,0x00,0x00,0x00,0x00,0x00,0x00,0x00,0x00,0x00,0x00,0x00,0xc0,0x00,
 0x00,0x00,0x00,0x00,0x00,0x00,0x00,0x00,0x00,0x00,0x00,0x00,0xc0,0x00,0x00,
 0x00,0x00,0x00,0x00,0x00,0x00,0x00,0x00,0x00,0x00,0x00,0xc0,0x00,0x00,0x00,
 0x00,0x00,0x00,0x00,0x00,0x00,0x00,0x00,0x00,0x00,0xc0,0x00,0x00,0x00,0x00,
 0x00,0x00,0x00,0x00,0x00,0x00,0x00,0x00,0x00,0xc0,0x00,0x00,0x00,0x00,0x00,
 0x00,0x00,0x00,0x00,0x00,0x00,0x00,0x00,0xc0,0x00,0x00,0x00,0x00,0x00,0x00,
 0x00,0x00,0x00,0x00,0x00,0x00,0x00,0xc0};
