#define santa_width 90
#define santa_height 90
static char santa_bits[] = {
 0x00,0x00,0x00,0x00,0x00,0x00,0x00,0x00,0x00,0x00,0x00,0xfc,0x00,0x00,0x00,
 0x00,0x00,0x00,0x00,0x00,0x00,0x00,0x00,0xfc,0x00,0x00,0x00,0x00,0x00,0x00,
 0x00,0x00,0x00,0x00,0x00,0xfc,0x00,0x00,0x00,0x00,0x00,0x00,0x00,0x00,0x00,
 0x00,0x00,0xfc,0x00,0x00,0x00,0x00,0x00,0x00,0x00,0x00,0x00,0x00,0x00,0xfc,
 0x00,0x00,0x00,0x00,0xbe,0x7e,0x1f,0x00,0x00,0x00,0x00,0xfc,0x00,0x00,0x00,
 0x80,0xab,0xc5,0x6a,0x00,0x00,0x00,0x00,0xfc,0x00,0x00,0x00,0xf8,0x6a,0x75,
 0xdb,0x03,0x00,0x00,0x00,0xfc,0x00,0x00,0x00,0xac,0x56,0xab,0xb6,0x0e,0x00,
 0x00,0x00,0xfc,0x00,0x00,0x00,0x5b,0xb5,0x5a,0x55,0x75,0x00,0x00,0x00,0xfc,
 0x00,0x00,0xc0,0xb5,0xad,0xb5,0xad,0xd5,0x00,0x00,0x00,0xfc,0x00,0x00,0x60,
 0xad,0xd6,0x5a,0xd5,0x5a,0x03,0x00,0x00,0xfc,0x00,0x00,0xb0,0x6b,0xb5,0xd6,
 0xb6,0xb5,0x05,0x00,0x00,0xfc,0x00,0x00,0x58,0xb5,0x5b,0x6b,0x5b,0xad,0x1e,
 0x00,0x00,0xfc,0x00,0x00,0xae,0x56,0xd5,0x56,0xb5,0xd5,0x3a,0x00,0x00,0xfc,
 0x00,0x00,0xd4,0xb5,0xb6,0xda,0x56,0x6d,0xd5,0x00,0x00,0xfc,0x00,0x00,0x37,
 0xdb,0xaa,0xb5,0xed,0xaa,0xea,0x00,0x00,0xfc,0x00,0x80,0xda,0x55,0x7f,0xad,
 0xaa,0xd6,0x36,0x03,0x00,0xfc,0x00,0xc0,0x55,0xff,0xc3,0x7f,0x5b,0xad,0x6d,
 0x05,0x00,0xfc,0x00,0xc0,0xda,0x00,0x00,0x00,0xd7,0xb6,0xaa,0x0e,0x00,0xfc,
 0x00,0xa0,0x75,0x00,0x00,0x00,0xbe,0x55,0xb5,0x15,0x00,0xfc,0x00,0xe0,0x01,
 0x00,0x00,0x00,0xc0,0xaa,0x5b,0x35,0x00,0xfc,0x00,0x90,0x00,0x00,0x00,0x00,
 0x80,0x5b,0xb5,0x2d,0x00,0xfc,0x00,0x78,0x00,0x00,0x00,0x00,0x00,0xee,0xd6,
 0x6a,0x00,0xfc,0x00,0x28,0x00,0x00,0x00,0x00,0x00,0xae,0xaa,0xad,0x00,0xfc,
 0x00,0x0c,0x00,0x00,0x00,0x00,0x00,0xe0,0xb6,0xb6,0x0c,0xfc,0x00,0x02,0x00,
 0x00,0x70,0x00,0x00,0xc0,0xfe,0xd5,0x13,0xfc,0x00,0x01,0x00,0xba,0x07,0x03,
 0x00,0x00,0x03,0x5b,0x61,0xfc,0x00,0x00,0x80,0x41,0x00,0xfc,0x01,0x00,0x01,
 0xac,0x80,0xfc,0x80,0x00,0x38,0x00,0x00,0x00,0x02,0x00,0x02,0x70,0x00,0xfd,
 0x80,0x00,0x07,0x00,0x10,0x00,0x04,0x00,0x02,0x20,0x00,0xfd,0x80,0x80,0xc0,
 0x7f,0xe1,0xff,0x08,0x00,0x02,0x10,0x00,0xfc,0x80,0x00,0x71,0xc0,0x20,0x80,
 0x73,0x00,0x02,0x20,0x00,0xfd,0x00,0x61,0x05,0x1f,0xd1,0xff,0x03,0x02,0x02,
 0x00,0x00,0xfd,0x00,0xa0,0xf8,0xf0,0x31,0x00,0x00,0x02,0x01,0x40,0x00,0xfd,
 0x00,0x8e,0x80,0x03,0x04,0x3e,0x40,0x84,0x00,0x80,0xc0,0xfc,0x00,0x80,0xc4,
 0x0f,0x80,0x7d,0x02,0x38,0x00,0x80,0x18,0xfc,0x00,0x80,0xa0,0x13,0x90,0x9e,
 0x08,0x2c,0x00,0x00,0x03,0xfc,0x00,0x80,0x90,0x17,0x80,0x96,0x80,0xe4,0x00,
 0x00,0x00,0xfc,0x04,0x80,0xa0,0xdb,0x80,0x7d,0x00,0xa4,0x00,0x00,0x00,0xfc,
 0x0c,0x40,0xe0,0x8f,0x24,0x1e,0x20,0x50,0x00,0x00,0x00,0xfc,0x10,0x60,0x00,
 0x60,0x20,0x00,0x04,0x0e,0x00,0x00,0x00,0xfc,0x68,0x20,0x04,0x10,0x20,0x90,
 0x00,0x23,0x00,0x00,0x00,0xfc,0x90,0x21,0xf8,0x08,0xe0,0x03,0xff,0x10,0x00,
 0x00,0x00,0xfc,0x10,0xae,0x07,0x0b,0xc1,0x00,0x00,0x10,0x00,0x00,0x00,0xfc,
 0x20,0x00,0x00,0x0c,0x40,0x00,0x00,0x1c,0x00,0x00,0x00,0xfc,0x40,0x00,0x00,
 0x08,0x64,0x00,0x00,0x14,0x00,0x00,0x00,0xfc,0x80,0x00,0x00,0x58,0x30,0x00,
 0x00,0x13,0x00,0x00,0x00,0xfc,0x00,0x01,0x00,0xa0,0x1f,0x00,0x80,0x10,0x00,
 0x00,0x00,0xfc,0x00,0x02,0x00,0xc0,0x09,0x00,0x40,0x10,0x00,0x00,0x00,0xfc,
 0x00,0x18,0x00,0x40,0x08,0x00,0x1c,0x10,0x00,0x00,0x00,0xfc,0x00,0x60,0x00,
 0x60,0x10,0x00,0x0f,0x10,0x00,0x00,0x00,0xfc,0x00,0xa0,0x07,0x10,0x60,0x38,
 0x03,0x00,0x00,0x00,0x00,0xfc,0x00,0x20,0x79,0x18,0x80,0x87,0x01,0x10,0x00,
 0x00,0x00,0xfc,0x00,0x20,0x0c,0x00,0xd0,0x70,0x00,0x20,0x00,0x00,0x00,0xfc,
 0x00,0x20,0x70,0xfe,0xff,0x0f,0x00,0x20,0x00,0x00,0x00,0xfc,0x00,0x20,0x00,
 0xf8,0x3f,0x00,0x00,0x20,0x00,0x00,0x00,0xfc,0x00,0x20,0x00,0xe0,0x0f,0x00,
 0x00,0x20,0x00,0x00,0x00,0xfc,0x00,0x20,0x00,0x18,0x60,0x00,0x00,0x20,0x00,
 0x00,0x00,0xfc,0x00,0x10,0x00,0xe0,0x1f,0x00,0x00,0x20,0x00,0x00,0x00,0xfc,
 0x00,0x08,0x00,0x00,0x00,0x00,0x00,0x20,0x00,0x00,0x00,0xfc,0x00,0x08,0x00,
 0x00,0x00,0x00,0x00,0x20,0x00,0x00,0x00,0xfc,0x00,0x04,0x00,0x00,0x00,0x00,
 0x00,0x20,0x00,0x00,0x00,0xfc,0x00,0x04,0x00,0x00,0x00,0x00,0x00,0x20,0x00,
 0x00,0x00,0xfc,0x00,0x02,0x00,0x00,0x00,0x00,0x00,0x20,0x00,0x00,0x00,0xfc,
 0x00,0x02,0x00,0x00,0x00,0x00,0x00,0x00,0x00,0x00,0x00,0xfc,0x00,0x00,0x00,
 0x00,0x00,0x00,0x00,0x10,0x00,0x00,0x00,0xfc,0x00,0x00,0x00,0x00,0x00,0x00,
 0x00,0x10,0x00,0x00,0x00,0xfc,0x00,0x01,0x00,0x00,0x00,0x00,0x00,0x10,0x00,
 0x00,0x00,0xfc,0x00,0x01,0x00,0x00,0x00,0x00,0x00,0x00,0x00,0x00,0x00,0xfc,
 0x00,0x01,0x00,0x00,0x00,0x00,0x00,0x08,0x00,0x00,0x00,0xfc,0x00,0x00,0x00,
 0x00,0x00,0x00,0x00,0x04,0x00,0x00,0x00,0xfc,0x80,0x00,0x00,0x00,0x00,0x00,
 0x00,0x02,0x00,0x00,0x00,0xfc,0x80,0x04,0x00,0x00,0x00,0x00,0x00,0x02,0x00,
 0x00,0x00,0xfc,0xc0,0x01,0x00,0x00,0x00,0x00,0x00,0x00,0x00,0x00,0x00,0xfc,
 0x00,0x08,0x00,0x00,0x00,0x00,0xc0,0x00,0x00,0x00,0x00,0xfc,0x00,0x00,0x00,
 0x00,0x00,0x00,0x20,0x00,0x00,0x00,0x00,0xfc,0x00,0x00,0x00,0x00,0x00,0x00,
 0x10,0x00,0x00,0x00,0x00,0xfc,0x00,0x00,0x00,0x00,0x00,0x00,0x06,0x00,0x00,
 0x00,0x00,0xfc,0x00,0x04,0x00,0x00,0x80,0x80,0x01,0x00,0x00,0x00,0x00,0xfc,
 0x00,0x02,0x00,0x00,0xc0,0x1e,0x00,0x00,0x00,0x00,0x00,0xfc,0x00,0x02,0x00,
 0x00,0xa0,0x00,0x00,0x00,0x00,0x00,0x00,0xfc,0x00,0x00,0x06,0x0e,0x0c,0x00,
 0x00,0x00,0x00,0x00,0x00,0xfc,0x00,0xe1,0x85,0x89,0x03,0x00,0x00,0x00,0x00,
 0x00,0x00,0xfc,0x00,0x03,0x1e,0x3c,0x00,0x00,0x00,0x00,0x00,0x00,0x00,0xfc,
 0x00,0x00,0x00,0x00,0x00,0x00,0x00,0x00,0x00,0x00,0x00,0xfc,0x00,0x00,0x00,
 0x00,0x00,0x00,0x00,0x00,0x00,0x00,0x00,0xfc,0x00,0x00,0x00,0x00,0x00,0x00,
 0x00,0x00,0x00,0x00,0x00,0xfc,0x00,0x00,0x00,0x00,0x00,0x00,0x00,0x00,0x00,
 0x00,0x00,0xfc,0x00,0x00,0x00,0x00,0x00,0x00,0x00,0x00,0x00,0x00,0x00,0xfc
 };
