#define _width 100
#define _height 86
static char _bits[] = {
 0x00,0x00,0x00,0x00,0x00,0x00,0x00,0x00,0x00,0x00,0x00,0x00,0x00,0x00,0x00,
 0x00,0x00,0x00,0x00,0x00,0x00,0x00,0x00,0x00,0x00,0x00,0x00,0x00,0x00,0x00,
 0x00,0x00,0x00,0x00,0x00,0x00,0x00,0x00,0x00,0x00,0x00,0x00,0x00,0x00,0x00,
 0x00,0x00,0x00,0x00,0x00,0x00,0x00,0x00,0x00,0x00,0x00,0x00,0x00,0x00,0x00,
 0x00,0x00,0x00,0x00,0x00,0x00,0x00,0x00,0x00,0x00,0x00,0x00,0x00,0x00,0x00,
 0x00,0x00,0x00,0x00,0x00,0x00,0x00,0x00,0x00,0x00,0x00,0x00,0x00,0x00,0x00,
 0x00,0x00,0x00,0x00,0x00,0x00,0x00,0x00,0x00,0x00,0x00,0x00,0x00,0x00,0x00,
 0x00,0x00,0x00,0x00,0x00,0x00,0x00,0x00,0x00,0x00,0x00,0x00,0x00,0x00,0x00,
 0x00,0x00,0xc0,0x07,0x00,0x00,0x00,0x00,0x00,0x00,0x00,0x00,0x00,0x00,0x00,
 0x3c,0x78,0x00,0x00,0x00,0x00,0x00,0x00,0x00,0x00,0x00,0x00,0x00,0x03,0x80,
 0x00,0x00,0x00,0x00,0x00,0x00,0x00,0x00,0x00,0x00,0x80,0xc0,0x03,0x03,0x00,
 0x00,0x00,0x00,0x00,0x00,0x00,0x00,0x00,0x60,0x38,0x3c,0x04,0x00,0x00,0x00,
 0x00,0x00,0x00,0x00,0x00,0x00,0x10,0x06,0xc0,0x08,0x00,0x00,0x00,0x00,0x00,
 0x00,0x00,0x00,0x00,0x10,0x81,0x03,0x11,0x00,0x00,0x00,0x00,0x00,0x00,0x00,
 0x00,0x00,0x88,0x70,0x1c,0x22,0x00,0x00,0x00,0x00,0x00,0x00,0x00,0x00,0x00,
 0x44,0x0c,0x60,0x24,0x00,0x00,0x00,0x00,0x00,0x00,0x00,0x00,0x00,0x22,0x82,
 0x43,0x44,0x00,0x00,0x00,0x00,0x00,0x00,0x00,0x00,0x00,0x22,0x71,0x8c,0x49,
 0x00,0x00,0x00,0x00,0x00,0x00,0x00,0x00,0x00,0x92,0x18,0x30,0x49,0x00,0x00,
 0x00,0x00,0x00,0x00,0x00,0x00,0x00,0x91,0x84,0x23,0x92,0x00,0x00,0x00,0x00,
 0x00,0x00,0x00,0x00,0x00,0x49,0x64,0x46,0x92,0x00,0x00,0x00,0x00,0x00,0x00,
 0x00,0x00,0x00,0x49,0x22,0x48,0x92,0x00,0x00,0x00,0x00,0x00,0x00,0x00,0x00,
 0x00,0x49,0x92,0x49,0x92,0x00,0x00,0x00,0x00,0x00,0x00,0x00,0x00,0x00,0x49,
 0x52,0x4a,0x92,0x00,0x00,0x00,0x00,0x00,0x00,0x00,0x00,0x00,0x49,0x52,0x46,
 0x92,0x00,0x00,0x00,0x00,0x00,0x00,0x00,0x00,0x00,0x49,0x52,0x20,0x92,0x00,
 0x00,0x00,0x00,0x00,0x00,0x00,0x00,0x00,0x49,0x92,0x19,0x49,0x00,0x00,0x00,
 0x00,0x00,0x00,0x00,0x00,0x00,0x49,0x22,0x8e,0x48,0x00,0x00,0x00,0x00,0x00,
 0x00,0x00,0x00,0x00,0x49,0x64,0xc0,0x44,0x00,0x00,0x00,0x00,0x00,0x00,0x00,
 0x00,0x00,0x91,0x88,0x39,0x24,0x00,0x00,0x00,0x00,0x00,0x00,0x00,0x00,0x00,
 0x92,0x09,0x06,0x23,0x00,0x00,0x00,0x00,0x00,0x00,0x00,0x00,0x00,0x22,0x31,
 0x80,0x10,0x00,0x00,0x00,0x00,0x00,0x00,0x00,0x00,0x00,0x26,0xc2,0x71,0x08,
 0x00,0x00,0x00,0x00,0x00,0x00,0x00,0x00,0x00,0x44,0x0c,0x0e,0x06,0x00,0x00,
 0x00,0x00,0x00,0x00,0x00,0x00,0x00,0x88,0x18,0x80,0x01,0x00,0x00,0x00,0x00,
 0x00,0x00,0x00,0x00,0x00,0x08,0xe1,0xe1,0x00,0x03,0x00,0x00,0x00,0x00,0x00,
 0x00,0x00,0x00,0x30,0x06,0x1e,0xf8,0x3c,0x00,0x00,0x00,0x00,0x00,0x00,0x00,
 0x00,0x40,0x18,0x00,0x07,0xc0,0x01,0x00,0x00,0x00,0x00,0x00,0x00,0xf0,0x81,
 0xe1,0xf1,0x80,0x03,0x06,0x00,0x00,0x00,0x00,0x00,0x00,0x0e,0x0e,0x02,0x0e,
 0x78,0x3c,0x0c,0x00,0x00,0x00,0x00,0x00,0x80,0x01,0x30,0x02,0x00,0x06,0xc0,
 0x10,0x00,0x00,0x00,0x00,0x00,0x60,0xf0,0x60,0x04,0x80,0x01,0x03,0x23,0x00,
 0x00,0x00,0x00,0x00,0x30,0x0e,0x87,0x08,0xc0,0xf0,0x1c,0x44,0x00,0x00,0x00,
 0x00,0x00,0x08,0x01,0x98,0x11,0x20,0x0c,0x60,0x48,0x00,0x00,0x00,0x00,0x00,
 0x84,0xf0,0x20,0x12,0x10,0x83,0x83,0x89,0x00,0x00,0x00,0x00,0x00,0x44,0x1c,
 0x43,0x22,0x10,0x71,0x0c,0x11,0x01,0x00,0x00,0x00,0x00,0x22,0x02,0x4c,0x24,
 0x88,0x18,0x30,0x22,0x01,0x00,0x00,0x00,0x00,0x92,0x61,0x88,0x24,0x44,0x84,
 0x41,0x24,0x01,0x00,0x00,0x00,0x00,0x89,0x98,0x91,0x44,0x24,0x62,0x8e,0x24,
 0x02,0x00,0x00,0x00,0x00,0x49,0x04,0x22,0x49,0x22,0x11,0x98,0x48,0x02,0x00,
 0x00,0x00,0x00,0x49,0x62,0x24,0x49,0x12,0x89,0x33,0x49,0x02,0x00,0x00,0x00,
 0x00,0x49,0x92,0x24,0x49,0x92,0x44,0x24,0x49,0x02,0x00,0x00,0x00,0x80,0x24,
 0x92,0x24,0x49,0x92,0x24,0x24,0x49,0x02,0x00,0x00,0x00,0x80,0x24,0x91,0x12,
 0x49,0x92,0x24,0x23,0x49,0x02,0x00,0x00,0x00,0x80,0x28,0x91,0x91,0x44,0x92,
 0x24,0x21,0x49,0x02,0x00,0x00,0x00,0x80,0x28,0x12,0x88,0x24,0x91,0x24,0x11,
 0x49,0x02,0x00,0x00,0x00,0x00,0x49,0x62,0x44,0x24,0x91,0x24,0x8e,0x44,0x02,
 0x00,0x00,0x00,0x00,0x49,0x84,0x63,0x22,0x91,0x44,0xc0,0x24,0x02,0x00,0x00,
 0x00,0x00,0x91,0x08,0x30,0x92,0x10,0x89,0x20,0x26,0x01,0x00,0x00,0x00,0x00,
 0x12,0x71,0x0e,0x91,0x20,0x19,0x1f,0x11,0x01,0x00,0x00,0x00,0x00,0x22,0x81,
 0x81,0x48,0x20,0x32,0x80,0x99,0x00,0x00,0x00,0x00,0x00,0x24,0x06,0x60,0x44,
 0x40,0xc2,0x60,0x88,0x00,0x00,0x00,0x00,0x00,0x44,0x78,0x1e,0x22,0x40,0x0c,
 0x1f,0x46,0x00,0x00,0x00,0x00,0x00,0x88,0x81,0x01,0x11,0x80,0x18,0x00,0x23,
 0x00,0x00,0x00,0x00,0x00,0x10,0x06,0xc0,0x08,0x00,0xe3,0xe0,0x10,0x00,0x00,
 0x00,0x00,0x00,0x60,0x78,0x3c,0x04,0x00,0x06,0x1f,0x0c,0x00,0x00,0x00,0x00,
 0x00,0xc0,0x80,0x03,0x02,0x00,0x18,0x00,0x06,0x00,0x00,0x00,0x00,0x00,0x00,
 0x03,0xc0,0x01,0x00,0xf0,0xc0,0x01,0x00,0x00,0x00,0x00,0x00,0x00,0x1c,0x38,
 0x00,0x00,0x00,0x3f,0x00,0x00,0x00,0x00,0x00,0x00,0x00,0xe0,0x07,0x00,0x00,
 0x00,0x00,0x00,0x00,0x00,0x00,0x00,0x00,0x00,0x00,0x00,0x00,0x00,0x00,0x00,
 0x00,0x00,0x00,0x00,0x00,0x00,0x00,0x00,0x00,0x00,0x00,0x00,0x00,0x00,0x00,
 0x00,0x00,0x00,0x00,0x00,0x00,0x00,0x00,0x00,0x00,0x00,0x00,0x00,0x00,0x00,
 0x00,0x00,0x00,0x00,0x00,0x00,0x00,0x00,0x00,0x00,0x00,0x00,0x00,0x00,0x00,
 0x00,0x00,0x00,0x00,0x00,0x00,0x00,0x00,0x00,0x00,0x00,0x00,0x00,0x00,0x00,
 0x00,0x00,0x00,0x00,0x00,0x00,0x00,0x00,0x00,0x00,0x00,0x00,0x00,0x00,0x00,
 0x00,0x00,0x00,0x00,0x00,0x00,0x00,0x00,0x00,0x00,0x00,0x00,0x00,0x00,0x00,
 0x00,0x00,0x00,0x00,0x00,0x00,0x00,0x00,0x00,0x00,0x00,0x00,0x00,0x00,0x00,
 0x00,0x00,0x00,0x00,0x00,0x00,0x00,0x00,0x00,0x00,0x00,0x00,0x00,0x00,0x00,
 0x00,0x00,0x00,0x00,0x00,0x00,0x00,0x00,0x00,0x00,0x00,0x00,0x00,0x00,0x00,
 0x00,0x00,0x00,0x00,0x00,0x00,0x00,0x00,0x00,0x00,0x00,0x00,0x00,0x00,0x00,
 0x00,0x00,0x00,0x00,0x00,0x00,0x00,0x00,0x00,0x00,0x00,0x00,0x00,0x00,0x00,
 0x00,0x00,0x00,0x00,0x00,0x00,0x00,0x00 };
