#define woodgrain_width 85
#define woodgrain_height 77
static char woodgrain_bits[] = {
 0x03,0x08,0x00,0x00,0x00,0xa0,0x0f,0xc1,0x11,0x14,0xe0,0xfc,0x82,0xea,0xfe,
 0x12,0x42,0x48,0x14,0x5f,0xae,0xea,0x80,0xbf,0x00,0x00,0x40,0x11,0x81,0x22,
 0x40,0x00,0xe0,0x03,0x40,0x07,0x01,0x12,0x44,0x54,0x80,0x0a,0x44,0xed,0x48,
 0x10,0x78,0x84,0x48,0x10,0x80,0x54,0xa1,0x99,0xe0,0x12,0x85,0x82,0x72,0x15,
 0x24,0x29,0x01,0x20,0x24,0xe0,0x44,0x10,0x08,0x88,0x46,0x81,0x44,0x04,0x04,
 0x40,0xf2,0x09,0x45,0x40,0x80,0xa0,0x1a,0x10,0x51,0xa1,0x28,0xe0,0x20,0x10,
 0x09,0x11,0x48,0x69,0x41,0x00,0x04,0x22,0xe1,0xaf,0x45,0x42,0x84,0xa0,0x85,
 0x06,0x44,0x82,0x00,0xe8,0xd0,0x1a,0x14,0x11,0xaa,0xa4,0xfa,0x07,0x08,0x95,
 0xe0,0x00,0xf4,0x57,0x8a,0x00,0x01,0x11,0xa0,0xa2,0x20,0xe4,0x24,0x02,0xd4,
 0x54,0x2a,0x52,0x44,0x40,0x5c,0x81,0xf0,0x01,0x45,0x01,0x41,0x95,0x80,0x10,
 0x11,0xce,0x28,0xe5,0x54,0x00,0x52,0x28,0x00,0x15,0x4a,0xc2,0x01,0xd2,0xeb,
 0x80,0xb6,0x08,0x80,0xfc,0xa0,0x92,0x48,0x24,0x70,0xed,0x17,0x11,0x40,0x22,
 0x03,0x5f,0xc0,0x03,0x81,0x94,0xf0,0x40,0x0c,0x12,0xd0,0x89,0x90,0x2e,0x50,
 0x00,0x21,0xe6,0x95,0x02,0x80,0x22,0x41,0x0a,0xfa,0x00,0x29,0x88,0xf2,0xf8,
 0xad,0x28,0x48,0x10,0x42,0x8f,0x4a,0x00,0x22,0xe1,0x04,0x18,0xd2,0x90,0x04,
 0xd0,0x41,0x3f,0x12,0x80,0xe4,0x21,0x41,0x04,0x57,0x55,0x22,0x20,0x40,0xed,
 0x2b,0xe0,0x00,0x04,0x10,0x01,0x2a,0x90,0x85,0x00,0x1b,0x20,0xf3,0x84,0x00,
 0x20,0x02,0x44,0x4b,0x50,0xc0,0x00,0x50,0xe0,0x40,0x88,0x84,0x48,0x01,0x40,
 0x0d,0x04,0x12,0x0a,0xff,0x12,0x52,0x01,0x00,0x40,0x24,0xda,0x92,0x40,0x81,
 0xe0,0x24,0x01,0x54,0x20,0x0a,0x41,0x81,0x4b,0x52,0x55,0xe0,0x11,0x84,0x08,
 0x95,0x40,0x10,0x0a,0xb4,0x10,0x80,0xe8,0x40,0x10,0x42,0x42,0x00,0x85,0x43,
 0x15,0xaa,0x00,0xe4,0x0d,0x85,0x90,0x28,0x6e,0x20,0x14,0x00,0x04,0x5e,0xe1,
 0x76,0x29,0x04,0xc0,0xaa,0x45,0x01,0x54,0xa0,0x21,0xfd,0xc0,0xb6,0xaa,0x5a,
 0x55,0x91,0x4a,0x02,0x54,0x08,0xe0,0x2a,0x04,0x55,0x82,0x20,0x08,0x00,0xb4,
 0x91,0x03,0xe4,0x00,0x21,0x09,0x48,0x0a,0x40,0x55,0x01,0x30,0x95,0xff,0x5a,
 0x84,0xfa,0x42,0xa0,0x2a,0x00,0x8a,0x86,0xaa,0xe0,0x01,0x01,0x20,0x10,0x08,
 0x00,0xa2,0x40,0x20,0x50,0xe2,0x54,0x96,0x14,0xe0,0x6f,0x00,0x08,0x12,0x45,
 0x04,0xfc,0x11,0x21,0x01,0x05,0xb1,0x5f,0x85,0xa4,0x10,0x0a,0xf1,0x44,0x00,
 0x08,0x0a,0x54,0x60,0x11,0x08,0x45,0x21,0xe2,0x11,0x52,0xa0,0x20,0x01,0x4d,
 0xd4,0x53,0x12,0x87,0xe8,0x02,0x08,0x02,0x02,0x24,0x10,0x50,0x55,0x45,0x11,
 0xe2,0x48,0x01,0x90,0x20,0x09,0x25,0x09,0x58,0xfb,0x42,0xe0,0x97,0x84,0x44,
 0x48,0xa0,0x00,0xa0,0x8a,0x06,0x88,0xea,0x80,0x76,0x29,0x02,0x05,0x08,0x01,
 0xa0,0x00,0xfa,0xe0,0x13,0x00,0x02,0x08,0x40,0xf5,0x12,0x41,0x0a,0x26,0xff,
 0xdc,0xff,0xdd,0xf7,0x2f,0x10,0x00,0x28,0x40,0x58,0xe0,0x01,0x00,0x2a,0x00,
 0x80,0x44,0x92,0x02,0x01,0x01,0xe2,0x20,0x85,0x54,0x29,0x30,0x01,0x21,0x20,
 0x48,0x4a,0xe1,0x82,0x04,0x02,0xc4,0xaf,0x54,0x84,0x92,0x22,0x20,0xe8,0x20,
 0x12,0x20,0x30,0xd4,0x96,0x12,0x01,0x08,0x04,0xe0,0x89,0x80,0x80,0x02,0x28,
 0x00,0xf8,0x7f,0x55,0x28,0xe9,0x03,0x54,0x24,0xa4,0x4a,0x4a,0x04,0x80,0xbf,
 0x42,0xf7,0xb4,0x02,0x00,0x00,0x80,0x20,0x80,0x28,0x80,0xbf,0xe0,0x00,0x80,
 0x4a,0x49,0x2a,0x0a,0x35,0x4a,0x0b,0x00,0xe0,0x42,0x14,0x20,0x00,0x41,0x21,
 0x88,0x80,0x00,0x8a,0xff,0x10,0x82,0x0a,0xaa,0x24,0x08,0x00,0x22,0xa0,0x20,
 0xe8,0xa2,0x14,0x50,0x01,0x80,0x22,0x25,0x08,0x09,0x92,0xe2,0x14,0x21,0x15,
 0x20,0x95,0x40,0x40,0x45,0x80,0x00,0xe0,0xdb,0x8a,0x20,0x89,0x48,0x0a,0x09,
 0x00,0x05,0x2a,0xf5,0x4a,0x00,0x49,0x20,0x00,0x00,0x00,0x55,0xa8,0x5b,0xe0,
 0x20,0x32,0xff,0x6f,0x24,0xa5,0xaa,0xb4,0x03,0x00,0xe9,0x00,0x04,0x00,0xd0,
 0xbb,0xa8,0x12,0x00,0x00,0xf9,0xe2,0x44,0xd0,0xdb,0x2e,0xee,0x57,0x40,0x02,
 0xaa,0x2c,0xe1,0x10,0x02,0x00,0x01,0x01,0x50,0x5f,0x50,0x01,0x12,0xe8,0x42,
 0x48,0x00,0x44,0x10,0x28,0x80,0xaf,0x28,0x61,0xe0,0x08,0x01,0x50,0x00,0x42,
 0x92,0x00,0x50,0x04,0x14,0xe8,0x00,0x10,0x01,0x12,0x88,0x04,0x42,0x04,0x51,
 0x6b,0xe0,0xa1,0x04,0x90,0x88,0x22,0x90,0x10,0x40,0x95,0x13,0xfa,0x04,0x44,
 0x2b,0x00,0x00,0x01,0x4a,0x95,0x42,0x88,0xe2,0x50,0x11,0x80,0x94,0x44,0xa4,
 0x20,0x00,0x54,0xa5,0xf4,0x0a,0x02,0x54,0x40,0x00,0x10,0x84,0x6a,0x05,0x00,
 0xe0,0x80,0xa8,0x02,0x0a,0x40,0x8a,0x32,0x00,0x00,0x55,0xed,0x7f,0x01,0xa8,
 0x50,0x15,0x01,0x00,0x25,0x48,0x00,0xe4,0x00,0x54,0x05,0x04,0x00,0x40,0xa4,
 0x80,0x12,0x4a,0xe8,0x92,0x54,0xf9,0xb7,0xaa,0x2a,0x11,0x4a,0x40,0x20,0xf5,
 0x41,0x04,0xac,0x7a,0x13,0x44,0x84,0x10,0x12,0x0a,0xfb,0x04,0x91,0x80,0x02,
 0xe8,0x17,0x29,0xa5,0x24,0x40,0xe4};
