<!-- Uncomment following when using your own custom external stylesheet.-->
<!--
<?xml-stylesheet type="text/css" href="xppaut-stylesheet.css" ?>
-->
<svg  xmlns="http://www.w3.org/2000/svg"
      xmlns:xlink="http://www.w3.org/1999/xlink" font-size="12pt" width="640" height="400">


      <defs>
          <circle class="xpppointP" id = "xpppointP"  r = "1"  stroke-width = "1"/>
          <circle class="xppbead" id = "xppbead"  r = "1"  stroke-width = "1"/>
          <circle class="xpppointD" id = "xpppointD"  r = "1"  stroke-width = "1"/>
          <circle class="xpppointA" id = "xpppointA"  r = "1"  stroke-width = "1"/>
          <circle class="xpppointB" id = "xpppointB"  r = "1"  stroke-width = "1"/>
          <circle class="xpppointC" id = "xpppointC"  r = "1"  stroke-width = "1"/>
          <circle class="xpppointT" id = "xpppointT"  r = "1"  stroke-width = "1"/>
          <circle class="xpppointS" id = "xpppointS"  r = "1"  stroke-width = "1"/>
          <circle class="xpppointK" id = "xpppointK"  r = "3"  stroke-width = "0.75"/>
          <circle class="xpppointF" id = "xpppointF"  r = "2"  stroke-width = "0"/>
      </defs>



      <!-- Comment out the following style block when using your own custom external stylesheet.-->
      <!-- As a starting point for your custom external stylesheet, consider copying the style 
           information (between but not including CDATA tags) to a file named xppaut-stylesheet.css 
       -->
      <style type="text/css">
           <![CDATA[
      
                 circle.xpppointP {
                    stroke-width: 1.0;
                 }

                 circle.xpppointD {
                    stroke-width: 1.0;
                 }

                 circle.xpppointA {
                    stroke-width: 1.0;
                 }

                 circle.xpppointB {
                    stroke-width: 1.0;
                 }

                 circle.xpppointC {
                    stroke-width: 1.0;
                 }

                 circle.xpppointT {
                    stroke-width: 1.0;
                 }

                 circle.xpppointS {
                    stroke-width: 1.0;
                 }

                 circle.xpppointK {
                    stroke-width: 1.0;
                 }

                 circle.xpppointF {
                    stroke-width: 1.0;
                 }

                 line.xppaxes {
                    stroke: #000000;
                 }
                 line.xppboxaxes {
                    stroke: #000000;
                 }
                 line.xppdfield {
                    stroke: #000000;
                 }
                 line.xpplineb {
                    stroke: #000000;
                 }
                 line.xpplinea {
                    stroke-dasharray: 2,8;
                    stroke-width: 2;
                    stroke: #000000;
                 }
                 line.xppline0 {
                    stroke: #000000;
                 }
                 line.xppline1 {
                    stroke-width: 4;
                    stroke: #FF0000;
                 }
                 line.xppline2 {
                    stroke: #F06400;
                 }
                 line.xppline3 {
                    stroke: #FFA500;
                 }
                 line.xppline4 {
                    stroke: #FFCD00;
                 }
                 line.xppline5 {
                    stroke: #C8C800;
                 }
                 line.xppline6 {
                    stroke: #00FF00;
                 }
                 line.xppline7 {
                    stroke: #32CD32;
                 }
                 line.xppline8 {
                    stroke: #00C8C8;
                 }
                 line.xppline9 {
                    stroke: #0000FF;
                 }
                 line.xpplinec {
                    stroke: #000000;
                 }
                 
                 text.xpptext {
                    font-family: sans-serif;
                    font-size  : 1em;
                    stroke	: #000000;
                    fill	: #000000;
                    baseline-shift:-33%;
                    dominant-baseline: central;
                 }
                 text.xppyaxislabelh {
                    font-family: sans-serif;
                    font-size  : 1em;
                    stroke	: none;
                    fill	: none;
                    baseline-shift:-33%;
                    dominant-baseline: central;
                 }
                 text.xppyaxislabelv {
                    font-family: sans-serif;
                    font-size  : 1em;
                    stroke	: #000000;
                    fill	: #000000;
                    baseline-shift:-33%;
                    dominant-baseline: central;
                 }
                 text.xppaxestext {
                    font-family: sans-serif;
                    font-size  : 1em;
                    stroke	: #000000;
                    fill	: #000000;
                    baseline-shift:-33%;
                    dominant-baseline: central;
                 }
                 
                 text.xpptext0 {
                    font-family: sans-serif;
                    font-size  : 0.5em;
                    stroke	: #000000;
                    fill	: #000000;
                    baseline-shift:-33%;
                    dominant-baseline: central;
                 }
                 
                 text.xpptext1 {
                    font-family: sans-serif;
                    font-size  : 0.75em;
                    stroke	: #000000;
                    fill	: #000000;
                    baseline-shift:-33%;
                    dominant-baseline: central;
                 }
                 
                 text.xpptext2 {
                    font-family: sans-serif;
                    font-size  : 1em;
                    stroke	: #000000;
                    fill	: #000000;
                    baseline-shift:-33%;
                    dominant-baseline: central;
                 }
                 
                 text.xpptext3 {
                    font-family: sans-serif;
                    font-size  : 1.25em;
                    stroke	: #000000;
                    fill	: #000000;
                    baseline-shift:-33%;
                    dominant-baseline: central;
                 }
                 
                 text.xpptext4 {
                    font-family: sans-serif;
                    font-size  : 1.5em;
                    stroke	: #000000;
                    fill	: #000000;
                    baseline-shift:-33%;
                    dominant-baseline: central;
                 }
           ]]>
      </style>

<g>
      <line class="xppline0"  x1="144"  y1="277" x2="144"   y2="277" />
      <line class="xppline0"  x1="144"  y1="277" x2="146"   y2="297" />
      <line class="xppline0"  x1="146"  y1="297" x2="148"   y2="301" />
      <line class="xppline0"  x1="148"  y1="301" x2="150"   y2="305" />
      <line class="xppline0"  x1="150"  y1="305" x2="153"   y2="297" />
      <line class="xppline0"  x1="153"  y1="297" x2="155"   y2="299" />
      <line class="xppline0"  x1="155"  y1="299" x2="157"   y2="304" />
      <line class="xppline0"  x1="157"  y1="304" x2="159"   y2="302" />
      <line class="xppline0"  x1="159"  y1="302" x2="162"   y2="303" />
      <line class="xppline0"  x1="162"  y1="303" x2="164"   y2="304" />
      <line class="xppline0"  x1="164"  y1="304" x2="166"   y2="294" />
      <line class="xppline0"  x1="166"  y1="294" x2="168"   y2="304" />
      <line class="xppline0"  x1="168"  y1="304" x2="171"   y2="302" />
      <line class="xppline0"  x1="171"  y1="302" x2="173"   y2="294" />
      <line class="xppline0"  x1="173"  y1="294" x2="175"   y2="302" />
      <line class="xppline0"  x1="175"  y1="302" x2="177"   y2="303" />
      <line class="xppline0"  x1="177"  y1="303" x2="180"   y2="302" />
      <line class="xppline0"  x1="180"  y1="302" x2="182"   y2="305" />
      <line class="xppline0"  x1="182"  y1="305" x2="184"   y2="300" />
      <line class="xppline0"  x1="184"  y1="300" x2="186"   y2="301" />
      <line class="xppline0"  x1="186"  y1="301" x2="189"   y2="300" />
      <line class="xppline0"  x1="189"  y1="300" x2="191"   y2="296" />
      <line class="xppline0"  x1="191"  y1="296" x2="193"   y2="304" />
      <line class="xppline0"  x1="193"  y1="304" x2="195"   y2="302" />
      <line class="xppline0"  x1="195"  y1="302" x2="198"   y2="300" />
      <line class="xppline0"  x1="198"  y1="300" x2="200"   y2="298" />
      <line class="xppline0"  x1="200"  y1="298" x2="202"   y2="301" />
      <line class="xppline0"  x1="202"  y1="301" x2="204"   y2="307" />
      <line class="xppline0"  x1="204"  y1="307" x2="207"   y2="306" />
      <line class="xppline0"  x1="207"  y1="306" x2="209"   y2="301" />
      <line class="xppline0"  x1="209"  y1="301" x2="211"   y2="297" />
      <line class="xppline0"  x1="211"  y1="297" x2="213"   y2="300" />
      <line class="xppline0"  x1="213"  y1="300" x2="216"   y2="298" />
      <line class="xppline0"  x1="216"  y1="298" x2="218"   y2="301" />
      <line class="xppline0"  x1="218"  y1="301" x2="220"   y2="297" />
      <line class="xppline0"  x1="220"  y1="297" x2="222"   y2="301" />
      <line class="xppline0"  x1="222"  y1="301" x2="225"   y2="307" />
      <line class="xppline0"  x1="225"  y1="307" x2="227"   y2="304" />
      <line class="xppline0"  x1="227"  y1="304" x2="229"   y2="300" />
      <line class="xppline0"  x1="229"  y1="300" x2="231"   y2="300" />
      <line class="xppline0"  x1="231"  y1="300" x2="234"   y2="304" />
      <line class="xppline0"  x1="234"  y1="304" x2="236"   y2="301" />
      <line class="xppline0"  x1="236"  y1="301" x2="238"   y2="296" />
      <line class="xppline0"  x1="238"  y1="296" x2="240"   y2="294" />
      <line class="xppline0"  x1="240"  y1="294" x2="243"   y2="308" />
      <line class="xppline0"  x1="243"  y1="308" x2="245"   y2="302" />
      <line class="xppline0"  x1="245"  y1="302" x2="247"   y2="303" />
      <line class="xppline0"  x1="247"  y1="303" x2="249"   y2="298" />
      <line class="xppline0"  x1="249"  y1="298" x2="252"   y2="302" />
      <line class="xppline0"  x1="252"  y1="302" x2="254"   y2="305" />
      <line class="xppline0"  x1="254"  y1="305" x2="256"   y2="304" />
      <line class="xppline0"  x1="256"  y1="304" x2="259"   y2="299" />
      <line class="xppline0"  x1="259"  y1="299" x2="261"   y2="295" />
      <line class="xppline0"  x1="261"  y1="295" x2="263"   y2="301" />
      <line class="xppline0"  x1="263"  y1="301" x2="265"   y2="301" />
      <line class="xppline0"  x1="265"  y1="301" x2="268"   y2="295" />
      <line class="xppline0"  x1="268"  y1="295" x2="270"   y2="306" />
      <line class="xppline0"  x1="270"  y1="306" x2="272"   y2="305" />
      <line class="xppline0"  x1="272"  y1="305" x2="274"   y2="303" />
      <line class="xppline0"  x1="274"  y1="303" x2="277"   y2="303" />
      <line class="xppline0"  x1="277"  y1="303" x2="279"   y2="303" />
      <line class="xppline0"  x1="279"  y1="303" x2="281"   y2="295" />
      <line class="xppline0"  x1="281"  y1="295" x2="283"   y2="294" />
      <line class="xppline0"  x1="283"  y1="294" x2="286"   y2="299" />
      <line class="xppline0"  x1="286"  y1="299" x2="288"   y2="299" />
      <line class="xppline0"  x1="288"  y1="299" x2="290"   y2="305" />
      <line class="xppline0"  x1="290"  y1="305" x2="292"   y2="307" />
      <line class="xppline0"  x1="292"  y1="307" x2="295"   y2="306" />
      <line class="xppline0"  x1="295"  y1="306" x2="297"   y2="307" />
      <line class="xppline0"  x1="297"  y1="307" x2="299"   y2="301" />
      <line class="xppline0"  x1="299"  y1="301" x2="301"   y2="295" />
      <line class="xppline0"  x1="301"  y1="295" x2="304"   y2="292" />
      <line class="xppline0"  x1="304"  y1="292" x2="306"   y2="295" />
      <line class="xppline0"  x1="306"  y1="295" x2="308"   y2="298" />
      <line class="xppline0"  x1="308"  y1="298" x2="310"   y2="301" />
      <line class="xppline0"  x1="310"  y1="301" x2="313"   y2="309" />
      <line class="xppline0"  x1="313"  y1="309" x2="315"   y2="308" />
      <line class="xppline0"  x1="315"  y1="308" x2="317"   y2="315" />
      <line class="xppline0"  x1="317"  y1="315" x2="319"   y2="305" />
      <line class="xppline0"  x1="319"  y1="305" x2="322"   y2="294" />
      <line class="xppline0"  x1="322"  y1="294" x2="324"   y2="294" />
      <line class="xppline0"  x1="324"  y1="294" x2="326"   y2="279" />
      <line class="xppline0"  x1="326"  y1="279" x2="328"   y2="289" />
      <line class="xppline0"  x1="328"  y1="289" x2="331"   y2="298" />
      <line class="xppline0"  x1="331"  y1="298" x2="333"   y2="312" />
      <line class="xppline0"  x1="333"  y1="312" x2="335"   y2="321" />
      <line class="xppline0"  x1="335"  y1="321" x2="337"   y2="319" />
      <line class="xppline0"  x1="337"  y1="319" x2="340"   y2="314" />
      <line class="xppline0"  x1="340"  y1="314" x2="342"   y2="304" />
      <line class="xppline0"  x1="342"  y1="304" x2="344"   y2="284" />
      <line class="xppline0"  x1="344"  y1="284" x2="346"   y2="269" />
      <line class="xppline0"  x1="346"  y1="269" x2="349"   y2="267" />
      <line class="xppline0"  x1="349"  y1="267" x2="351"   y2="287" />
      <line class="xppline0"  x1="351"  y1="287" x2="353"   y2="321" />
      <line class="xppline0"  x1="353"  y1="321" x2="355"   y2="328" />
      <line class="xppline0"  x1="355"  y1="328" x2="358"   y2="329" />
      <line class="xppline0"  x1="358"  y1="329" x2="360"   y2="329" />
      <line class="xppline0"  x1="360"  y1="329" x2="362"   y2="329" />
      <line class="xppline0"  x1="362"  y1="329" x2="364"   y2="329" />
      <line class="xppline0"  x1="364"  y1="329" x2="367"   y2="329" />
      <line class="xppline0"  x1="367"  y1="329" x2="369"   y2="51" />
      <line class="xppline0"  x1="369"  y1="51" x2="371"   y2="329" />
      <line class="xppline0"  x1="371"  y1="329" x2="374"   y2="329" />
      <line class="xppline0"  x1="374"  y1="329" x2="376"   y2="329" />
      <line class="xppline0"  x1="376"  y1="329" x2="378"   y2="329" />
      <line class="xppline0"  x1="378"  y1="329" x2="380"   y2="328" />
      <line class="xppline0"  x1="380"  y1="328" x2="383"   y2="321" />
      <line class="xppline0"  x1="383"  y1="321" x2="385"   y2="287" />
      <line class="xppline0"  x1="385"  y1="287" x2="387"   y2="267" />
      <line class="xppline0"  x1="387"  y1="267" x2="389"   y2="269" />
      <line class="xppline0"  x1="389"  y1="269" x2="392"   y2="284" />
      <line class="xppline0"  x1="392"  y1="284" x2="394"   y2="304" />
      <line class="xppline0"  x1="394"  y1="304" x2="396"   y2="313" />
      <line class="xppline0"  x1="396"  y1="313" x2="398"   y2="319" />
      <line class="xppline0"  x1="398"  y1="319" x2="401"   y2="321" />
      <line class="xppline0"  x1="401"  y1="321" x2="403"   y2="312" />
      <line class="xppline0"  x1="403"  y1="312" x2="405"   y2="298" />
      <line class="xppline0"  x1="405"  y1="298" x2="407"   y2="289" />
      <line class="xppline0"  x1="407"  y1="289" x2="410"   y2="279" />
      <line class="xppline0"  x1="410"  y1="279" x2="412"   y2="294" />
      <line class="xppline0"  x1="412"  y1="294" x2="414"   y2="294" />
      <line class="xppline0"  x1="414"  y1="294" x2="416"   y2="305" />
      <line class="xppline0"  x1="416"  y1="305" x2="419"   y2="315" />
      <line class="xppline0"  x1="419"  y1="315" x2="421"   y2="308" />
      <line class="xppline0"  x1="421"  y1="308" x2="423"   y2="309" />
      <line class="xppline0"  x1="423"  y1="309" x2="425"   y2="301" />
      <line class="xppline0"  x1="425"  y1="301" x2="428"   y2="298" />
      <line class="xppline0"  x1="428"  y1="298" x2="430"   y2="295" />
      <line class="xppline0"  x1="430"  y1="295" x2="432"   y2="292" />
      <line class="xppline0"  x1="432"  y1="292" x2="434"   y2="295" />
      <line class="xppline0"  x1="434"  y1="295" x2="437"   y2="301" />
      <line class="xppline0"  x1="437"  y1="301" x2="439"   y2="307" />
      <line class="xppline0"  x1="439"  y1="307" x2="441"   y2="306" />
      <line class="xppline0"  x1="441"  y1="306" x2="443"   y2="307" />
      <line class="xppline0"  x1="443"  y1="307" x2="446"   y2="305" />
      <line class="xppline0"  x1="446"  y1="305" x2="448"   y2="299" />
      <line class="xppline0"  x1="448"  y1="299" x2="450"   y2="299" />
      <line class="xppline0"  x1="450"  y1="299" x2="452"   y2="294" />
      <line class="xppline0"  x1="452"  y1="294" x2="455"   y2="295" />
      <line class="xppline0"  x1="455"  y1="295" x2="457"   y2="303" />
      <line class="xppline0"  x1="457"  y1="303" x2="459"   y2="303" />
      <line class="xppline0"  x1="459"  y1="303" x2="461"   y2="303" />
      <line class="xppline0"  x1="461"  y1="303" x2="464"   y2="305" />
      <line class="xppline0"  x1="464"  y1="305" x2="466"   y2="306" />
      <line class="xppline0"  x1="466"  y1="306" x2="468"   y2="295" />
      <line class="xppline0"  x1="468"  y1="295" x2="470"   y2="301" />
      <line class="xppline0"  x1="470"  y1="301" x2="473"   y2="301" />
      <line class="xppline0"  x1="473"  y1="301" x2="475"   y2="295" />
      <line class="xppline0"  x1="475"  y1="295" x2="477"   y2="299" />
      <line class="xppline0"  x1="477"  y1="299" x2="479"   y2="304" />
      <line class="xppline0"  x1="479"  y1="304" x2="482"   y2="305" />
      <line class="xppline0"  x1="482"  y1="305" x2="484"   y2="302" />
      <line class="xppline0"  x1="484"  y1="302" x2="486"   y2="298" />
      <line class="xppline0"  x1="486"  y1="298" x2="489"   y2="303" />
      <line class="xppline0"  x1="489"  y1="303" x2="491"   y2="302" />
      <line class="xppline0"  x1="491"  y1="302" x2="493"   y2="308" />
      <line class="xppline0"  x1="493"  y1="308" x2="495"   y2="294" />
      <line class="xppline0"  x1="495"  y1="294" x2="498"   y2="296" />
      <line class="xppline0"  x1="498"  y1="296" x2="500"   y2="301" />
      <line class="xppline0"  x1="500"  y1="301" x2="502"   y2="304" />
      <line class="xppline0"  x1="502"  y1="304" x2="504"   y2="300" />
      <line class="xppline0"  x1="504"  y1="300" x2="507"   y2="300" />
      <line class="xppline0"  x1="507"  y1="300" x2="509"   y2="304" />
      <line class="xppline0"  x1="509"  y1="304" x2="511"   y2="307" />
      <line class="xppline0"  x1="511"  y1="307" x2="513"   y2="301" />
      <line class="xppline0"  x1="513"  y1="301" x2="516"   y2="297" />
      <line class="xppline0"  x1="516"  y1="297" x2="518"   y2="301" />
      <line class="xppline0"  x1="518"  y1="301" x2="520"   y2="298" />
      <line class="xppline0"  x1="520"  y1="298" x2="522"   y2="300" />
      <line class="xppline0"  x1="522"  y1="300" x2="525"   y2="297" />
      <line class="xppline0"  x1="525"  y1="297" x2="527"   y2="301" />
      <line class="xppline0"  x1="527"  y1="301" x2="529"   y2="306" />
      <line class="xppline0"  x1="529"  y1="306" x2="531"   y2="307" />
      <line class="xppline0"  x1="531"  y1="307" x2="534"   y2="301" />
      <line class="xppline0"  x1="534"  y1="301" x2="536"   y2="298" />
      <line class="xppline0"  x1="536"  y1="298" x2="538"   y2="300" />
      <line class="xppline0"  x1="538"  y1="300" x2="540"   y2="302" />
      <line class="xppline0"  x1="540"  y1="302" x2="543"   y2="304" />
      <line class="xppline0"  x1="543"  y1="304" x2="545"   y2="296" />
      <line class="xppline0"  x1="545"  y1="296" x2="547"   y2="300" />
      <line class="xppline0"  x1="547"  y1="300" x2="549"   y2="301" />
      <line class="xppline0"  x1="549"  y1="301" x2="552"   y2="300" />
      <line class="xppline0"  x1="552"  y1="300" x2="554"   y2="305" />
      <line class="xppline0"  x1="554"  y1="305" x2="556"   y2="302" />
      <line class="xppline0"  x1="556"  y1="302" x2="558"   y2="303" />
      <line class="xppline0"  x1="558"  y1="303" x2="561"   y2="302" />
      <line class="xppline0"  x1="561"  y1="302" x2="563"   y2="294" />
      <line class="xppline0"  x1="563"  y1="294" x2="565"   y2="302" />
      <line class="xppline0"  x1="565"  y1="302" x2="567"   y2="304" />
      <line class="xppline0"  x1="567"  y1="304" x2="570"   y2="294" />
      <line class="xppline0"  x1="570"  y1="294" x2="572"   y2="304" />
      <line class="xppline0"  x1="572"  y1="304" x2="574"   y2="303" />
      <line class="xppline0"  x1="574"  y1="303" x2="576"   y2="302" />
      <line class="xppline0"  x1="576"  y1="302" x2="579"   y2="304" />
      <line class="xppline0"  x1="579"  y1="304" x2="581"   y2="299" />
      <line class="xppline0"  x1="581"  y1="299" x2="583"   y2="297" />
      <line class="xppline0"  x1="583"  y1="297" x2="585"   y2="305" />
      <line class="xppline0"  x1="585"  y1="305" x2="588"   y2="301" />
      <line class="xppline0"  x1="588"  y1="301" x2="590"   y2="297" />
      <line class="xppline0"  x1="590"  y1="297" x2="592"   y2="304" />
      <line class="xppline0"  x1="592"  y1="304" x2="595"   y2="302" />
</g>
      <line class="xppaxes"  x1="144"  y1="329" x2="595"   y2="329" />
      <line class="xppaxes"  x1="369"  y1="51" x2="369"   y2="329" />
      <line class="xppboxaxes"  x1="144"  y1="51" x2="595"   y2="51" />
      <line class="xppboxaxes"  x1="595"  y1="51" x2="595"   y2="329" />
      <line class="xppaxes"  x1="595"  y1="329" x2="144"   y2="329" />
      <line class="xppaxes"  x1="144"  y1="329" x2="144"   y2="51" />
      <line class="xppaxes"  x1="144"  y1="329" x2="153"   y2="329" />
      <line class="xppboxaxes"  x1="595"  y1="329" x2="586"   y2="329" />

      <text class="xppaxestext" text-anchor="end" x="129"  y="329"
      >0</text>
      <line class="xppaxes"  x1="144"  y1="296" x2="153"   y2="296" />
      <line class="xppboxaxes"  x1="595"  y1="296" x2="586"   y2="296" />

      <text class="xppaxestext" text-anchor="end" x="129"  y="296"
      >100</text>
      <line class="xppaxes"  x1="144"  y1="262" x2="153"   y2="262" />
      <line class="xppboxaxes"  x1="595"  y1="262" x2="586"   y2="262" />

      <text class="xppaxestext" text-anchor="end" x="129"  y="262"
      >200</text>
      <line class="xppaxes"  x1="144"  y1="229" x2="153"   y2="229" />
      <line class="xppboxaxes"  x1="595"  y1="229" x2="586"   y2="229" />

      <text class="xppaxestext" text-anchor="end" x="129"  y="229"
      >300</text>
      <line class="xppaxes"  x1="144"  y1="195" x2="153"   y2="195" />
      <line class="xppboxaxes"  x1="595"  y1="195" x2="586"   y2="195" />

      <text class="xppaxestext" text-anchor="end" x="129"  y="195"
      >400</text>
      <line class="xppaxes"  x1="144"  y1="161" x2="153"   y2="161" />
      <line class="xppboxaxes"  x1="595"  y1="161" x2="586"   y2="161" />

      <text class="xppaxestext" text-anchor="end" x="129"  y="161"
      >500</text>
      <line class="xppaxes"  x1="144"  y1="128" x2="153"   y2="128" />
      <line class="xppboxaxes"  x1="595"  y1="128" x2="586"   y2="128" />

      <text class="xppaxestext" text-anchor="end" x="129"  y="128"
      >600</text>
      <line class="xppaxes"  x1="144"  y1="94" x2="153"   y2="94" />
      <line class="xppboxaxes"  x1="595"  y1="94" x2="586"   y2="94" />

      <text class="xppaxestext" text-anchor="end" x="129"  y="94"
      >700</text>
      <line class="xppaxes"  x1="144"  y1="61" x2="153"   y2="61" />
      <line class="xppboxaxes"  x1="595"  y1="61" x2="586"   y2="61" />

      <text class="xppaxestext" text-anchor="end" x="129"  y="61"
      >800</text>

      <text class="xppyaxislabelv" text-anchor="middle" x="0"  y="0"
      transform="rotate(-90,75,180) translate(75,180)"
      ></text>

      <text class="xppyaxislabelh" text-anchor="end" x="132"  y="11"
      ></text>
      <line class="xppaxes"  x1="144"  y1="329" x2="144"   y2="320" />
      <line class="xppboxaxes"  x1="144"  y1="51" x2="144"   y2="60" />

      <text class="xppaxestext" text-anchor="middle" x="144"  y="354"
      >-100</text>
      <line class="xppaxes"  x1="256"  y1="329" x2="256"   y2="320" />
      <line class="xppboxaxes"  x1="256"  y1="51" x2="256"   y2="60" />

      <text class="xppaxestext" text-anchor="middle" x="256"  y="354"
      >-50</text>
      <line class="xppaxes"  x1="369"  y1="329" x2="369"   y2="320" />
      <line class="xppboxaxes"  x1="369"  y1="51" x2="369"   y2="60" />

      <text class="xppaxestext" text-anchor="middle" x="369"  y="354"
      >0</text>
      <line class="xppaxes"  x1="482"  y1="329" x2="482"   y2="320" />
      <line class="xppboxaxes"  x1="482"  y1="51" x2="482"   y2="60" />

      <text class="xppaxestext" text-anchor="middle" x="482"  y="354"
      >50</text>
      <line class="xppaxes"  x1="595"  y1="329" x2="595"   y2="320" />
      <line class="xppboxaxes"  x1="595"  y1="51" x2="595"   y2="60" />

      <text class="xppaxestext" text-anchor="middle" x="595"  y="354"
      >100</text>

      <text class="xppaxestext" text-anchor="middle" x="369"  y="379"
      ></text>
</svg>
